HIERARCHY
ROOT hip
{
	OFFSET 0.000000 0.000000 0.000000 
	CHANNELS 6 Xposition Yposition Zposition Xrotation Zrotation Yrotation
	JOINT abdomen
	{
		OFFSET 0.000000 3.402643 0.000000 
		CHANNELS 3 Xrotation Zrotation Yrotation
		JOINT chest
		{
			OFFSET 0.000000 8.438565 -0.680529 
			CHANNELS 3 Xrotation Zrotation Yrotation
			JOINT neck
			{
				OFFSET 0.000000 9.885400 -0.272212 
				CHANNELS 3 Xrotation Zrotation Yrotation
				JOINT head
				{
					OFFSET 0.000000 3.130431 0.000000 
					CHANNELS 3 Xrotation Zrotation Yrotation
					End Site
					{
						OFFSET 0.000000 3.039250 0.000000 
					}
				}
			}
			JOINT lCollar
			{
				OFFSET 3.238290 6.669187 -0.816635 
				CHANNELS 3 Yrotation Zrotation Xrotation
				JOINT lShldr
				{
					OFFSET 2.515050 0.000000 0.000000 
					CHANNELS 3 Zrotation Yrotation Xrotation
					JOINT lForeArm
					{
						OFFSET 11.517700 0.000000 0.000000 
						CHANNELS 3 Yrotation Zrotation Xrotation
						JOINT lHand
						{
							OFFSET 9.026700 0.000000 0.000000 
							CHANNELS 3 Zrotation Yrotation Xrotation
							End Site
							{
								OFFSET 4.028470 0.000000 0.000000 
							}
						}
					}
				}
			}
			JOINT rCollar
			{
				OFFSET -3.238290 6.669187 -0.816635 
				CHANNELS 3 Yrotation Zrotation Xrotation
				JOINT rShldr
				{
					OFFSET -2.515050 0.000000 0.000000 
					CHANNELS 3 Zrotation Yrotation Xrotation
					JOINT rForeArm
					{
						OFFSET -11.517700 0.000000 0.000000 
						CHANNELS 3 Yrotation Zrotation Xrotation
						JOINT rHand
						{
							OFFSET -9.026700 0.000000 0.000000 
							CHANNELS 3 Zrotation Yrotation Xrotation
							End Site
							{
								OFFSET -4.028470 0.000000 0.000000 
							}
						}
					}
				}
			}
		}
	}
	JOINT lThigh
	{
		OFFSET 4.983750 -1.633274 1.361059 
		CHANNELS 3 Xrotation Zrotation Yrotation
		JOINT lShin
		{
			OFFSET -2.041588 -20.007561 0.000000 
			CHANNELS 3 Xrotation Zrotation Yrotation
			JOINT lFoot
			{
				OFFSET 0.000000 -19.190928 -1.224953 
				CHANNELS 3 Xrotation Yrotation Zrotation
				End Site
				{
					OFFSET 0.000000 -2.449906 4.627600 
				}
			}
		}
	}
	JOINT rThigh
	{
		OFFSET -4.983750 -1.633274 1.361059 
		CHANNELS 3 Xrotation Zrotation Yrotation
		JOINT rShin
		{
			OFFSET 2.041588 -20.007561 0.000000 
			CHANNELS 3 Xrotation Zrotation Yrotation
			JOINT rFoot
			{
				OFFSET 0.000000 -19.190928 -1.224953 
				CHANNELS 3 Xrotation Yrotation Zrotation
				End Site
				{
					OFFSET 0.000000 -2.449906 4.627600 
				}
			}
		}
	}
}
MOTION
Frames: 8
Frame Time: 0.066668
0.000000 42.727947 0.000000 -1.103520 0.029291 1.395920 0.194950 -0.603298 -0.846301 0.083550 -0.258556 -0.362701 14.537200 5.918580 -4.004450 11.603600 6.916060 -1.862030 2.000000 -2.000000 0.020256 -85.014000 -0.228892 152.617996 20.635000 -0.342793 0.048241 0.045119 0.020256 -132.459000 -2.000000 2.000000 0.020256 83.144402 -10.170300 169.438995 -29.346001 0.334021 0.067006 -0.054412 0.020256 -137.673996 -5.609821 -5.282892 -3.939407 23.064447 2.919250 1.730032 -15.992094 16.668140 4.925923 -8.740243 1.835983 18.203491 26.624889 -3.301205 -1.873090 -16.362728 -17.610891 -5.423161 
0.204540 42.744194 0.108844 -1.543020 0.478342 2.018370 -0.272790 -0.757580 -0.053445 -0.116910 -0.324677 -0.022905 14.719600 5.964920 -2.393800 11.526500 7.004610 -1.049500 2.000000 -2.000000 0.000000 -85.685204 -1.727940 150.276993 17.646700 -0.345131 0.041506 0.046336 0.013560 -128.561996 -2.000000 2.000000 0.000000 83.349503 -9.644660 170.171997 -31.006201 0.332030 0.070431 -0.054463 0.004539 -138.542999 -4.570227 -6.112056 -4.802067 22.220930 2.949551 1.668850 -16.089069 17.357161 5.075617 -9.355453 1.098045 16.556347 29.147280 -3.233953 -2.045505 -16.080776 -16.051167 -4.948894 
0.385468 42.993195 -0.613397 -1.231640 -2.499420 -4.477580 -0.999600 0.779521 -0.045253 -0.428400 0.334080 -0.019394 12.026700 6.823430 -1.180920 10.769300 7.037040 -0.202699 2.000000 -2.000000 0.000000 -87.542000 -0.270363 151.475006 17.051001 -0.345554 0.040149 0.045445 0.006368 -131.149994 -2.000000 2.000000 0.000000 -97.588203 -174.225006 -6.800880 -34.941799 0.326920 0.078307 -0.054561 0.007217 -139.500000 -5.544304 -4.013507 -5.191557 23.346556 3.021595 1.726118 -20.406937 22.644854 8.559028 -12.004130 3.539074 18.313105 28.967505 -3.007628 -2.100431 -9.323362 -10.063541 -1.939794 
0.632512 43.183849 -1.288300 0.254311 -3.232390 -13.794200 -1.026411 1.229301 -0.805073 -0.439890 0.526844 -0.345031 12.492900 8.641430 -3.998840 11.004400 7.527610 -1.705780 2.000000 -2.000000 0.000000 -87.814796 -0.940925 143.380997 12.646600 -0.348247 0.029994 0.053092 0.041652 -118.230003 -2.000000 2.000000 0.000000 -98.027298 -174.475998 -5.307080 -41.103901 0.317867 0.089885 -0.055078 0.014746 -142.195007 -6.120963 -3.886909 -4.932783 21.932335 2.966866 1.655942 -28.083996 26.710909 14.510179 -12.633788 2.389390 21.980581 23.260765 -3.208588 -1.684188 -10.593158 -0.242478 -0.042819 
0.345408 43.188965 -1.931896 1.183360 -3.085280 -23.433300 -0.652610 1.267512 -1.728330 -0.279690 0.543219 -0.740713 17.944599 6.225770 -8.177150 12.420200 6.407810 -4.239090 2.000000 -2.000000 0.000000 -85.638000 -3.481150 137.436996 9.795040 -0.349570 0.023320 0.062070 0.062983 -109.959000 -2.000000 2.000000 0.000000 -98.437698 -174.585007 -6.067600 -37.773800 0.322914 0.083749 -0.054595 0.007927 -139.753998 -6.476021 -3.555000 -2.922632 21.437397 2.902857 1.632172 -36.378765 27.024239 20.215887 -12.856475 2.029311 17.338297 26.393978 -3.031214 -1.933657 -13.322251 -14.201065 -3.459906 
-0.650616 43.073936 -2.162992 0.508173 -2.158120 -31.230400 -0.338591 1.475599 -2.412536 -0.145111 0.632400 -1.033944 21.783400 4.701920 -9.689900 13.380200 5.743390 -5.262580 2.000000 -2.000000 0.000000 -84.280296 -3.864600 151.248001 13.886900 -0.347568 0.032874 0.048150 0.023651 -124.900002 -2.000000 2.000000 0.000000 80.076500 -7.413990 168.419998 -31.992500 0.330800 0.072437 -0.054418 0.007222 -136.014008 -5.255116 -4.056935 -0.520173 21.275284 2.996713 1.601369 -42.274464 26.456139 24.217283 -10.469541 0.134249 12.256190 30.451220 -3.022765 -2.172698 -15.794782 -20.235279 -5.586675 
-2.809844 42.923725 -2.789926 0.459009 -0.595684 -37.358398 -0.163520 1.587662 -3.350830 -0.070080 0.680427 -1.436070 22.923599 4.764420 -10.440900 13.515500 5.625250 -5.776910 2.000000 -2.000000 0.000000 -82.569603 -3.583210 159.421997 18.213100 -0.344715 0.042792 0.044972 0.000673 -133.190994 -2.000000 2.000000 0.000000 78.329597 -10.460900 168.412994 -29.121401 0.334282 0.066538 -0.054474 0.004844 -135.164001 -5.219799 -3.211818 2.906399 21.808992 3.069049 1.636690 -44.574825 26.439159 26.287169 -8.318510 0.654211 11.849662 28.800013 -3.087781 -2.053616 -19.402931 -23.172005 -7.580804 
-5.689342 42.563663 -4.069334 0.459028 -0.790990 -45.455700 0.211610 1.612718 -3.929940 0.090690 0.691165 -1.684260 23.676399 3.698740 -9.512970 13.620200 5.449940 -5.356100 2.000000 -2.000000 0.000000 -81.695099 -0.160439 165.820999 25.332300 -0.338418 0.058557 0.044754 -0.006234 -139.147995 -2.000000 2.000000 0.000000 77.352600 -10.439500 167.651001 -29.570601 0.333757 0.067473 -0.054609 0.001537 -133.981995 -6.781538 1.725087 12.236076 29.191717 3.194274 2.064852 -40.489574 29.104101 24.796772 -7.288910 3.182354 12.477598 26.606939 -3.061419 -1.937747 -20.502062 -17.668577 -5.459205 
